<?xml version="1.0" standalone="no"?>
<svg xmlns="http://www.w3.org/2000/svg" xmlns:xlink="http://www.w3.org/1999/xlink" viewBox="0 0 500 500" width="500" height="500" preserveAspectRatio="xMidYMid meet" style="width: 100%; height: 100%; transform: translate3d(0px, 0px, 0px); content-visibility: visible;"><defs><clipPath id="__lottie_element_2"><rect width="500" height="500" x="0" y="0"/></clipPath></defs><g clip-path="url(#__lottie_element_2)"><g transform="matrix(1,0,0,1,250,250)" opacity="1" style="display: block;"><g opacity="1" transform="matrix(1,0,0,1,0,0)"><path stroke-linecap="butt" stroke-linejoin="miter" fill-opacity="0" stroke-miterlimit="4" stroke="rgb(255,255,255)" stroke-opacity="1" stroke-width="18.8" d="M0 0"/></g></g><g transform="matrix(1,0,0,1,250,250)" opacity="1" style="display: block;"><g opacity="1" transform="matrix(1,0,0,1,0,0)"><path fill="rgb(15,21,66)" fill-opacity="1" d=" M150,0 C150,0 150,0 150,0 C150,38.632999420166016 118.63300323486328,70 80,70 C80,70 -80,70 -80,70 C-118.63300323486328,70 -150,38.632999420166016 -150,0 C-150,0 -150,0 -150,0 C-150,-38.632999420166016 -118.63300323486328,-70 -80,-70 C-80,-70 80,-70 80,-70 C118.63300323486328,-70 150,-38.632999420166016 150,0z"/></g></g><g transform="matrix(1,0,0,1,250,217.15399169921875)" opacity="0.15" style="display: block;"><g opacity="1" transform="matrix(1,0,0,1,0,0)"><path fill="rgb(0,0,0)" fill-opacity="1" d=" M82.2229995727539,-37.15399932861328 C82.2229995727539,-37.15399932861328 -82.2229995727539,-37.15399932861328 -82.2229995727539,-37.15399932861328 C-119.65499877929688,-37.15399932861328 -150,-6.809000015258789 -150,30.62299919128418 C-150,30.62299919128418 -150,35.069000244140625 -150,35.069000244140625 C-150,35.768001556396484 -149.96800231933594,36.459999084472656 -149.94700622558594,37.15399932861328 C-148.8419952392578,0.6890000104904175 -118.95600128173828,-28.538000106811523 -82.2229995727539,-28.538000106811523 C-82.2229995727539,-28.538000106811523 82.2229995727539,-28.538000106811523 82.2229995727539,-28.538000106811523 C118.95600128173828,-28.538000106811523 148.8419952392578,0.6890000104904175 149.94700622558594,37.15399932861328 C149.96800231933594,36.459999084472656 150,35.768001556396484 150,35.069000244140625 C150,35.069000244140625 150,30.62299919128418 150,30.62299919128418 C150,-6.809000015258789 119.65499877929688,-37.15399932861328 82.2229995727539,-37.15399932861328z"/><path stroke-linecap="butt" stroke-linejoin="miter" fill-opacity="0" stroke-miterlimit="4" stroke="rgb(238,253,255)" stroke-opacity="1" stroke-width="1" d="M0 0"/></g></g><g transform="matrix(1,0,0,1,330.5,265)" opacity="1" style="display: none;"><g opacity="1" transform="matrix(1,0,0,1,0,0)"><path fill="rgb(255,255,255)" fill-opacity="1" d=" M16.075000762939453,-1.3669999837875366 C15.045000076293945,-7.395999908447266 9.79800033569336,-11.986000061035156 3.4760000705718994,-11.986000061035156 C3.4760000705718994,-11.986000061035156 3.4760000705718994,-11.986000061035156 3.4760000705718994,-11.986000061035156 C-2.8320000171661377,-11.986000061035156 -8.069999694824219,-7.414999961853027 -9.116000175476074,-1.406000018119812 C-9.116000175476074,-1.406000018119812 -19.304000854492188,-1.406000018119812 -19.304000854492188,-1.406000018119812 C-26.040000915527344,-1.406000018119812 -31.5,4.053999900817871 -31.5,10.789999961853027 C-31.5,10.789999961853027 -31.5,10.789999961853027 -31.5,10.789999961853027 C-31.5,17.525999069213867 -26.040000915527344,22.986000061035156 -19.304000854492188,22.986000061035156 C-19.304000854492188,22.986000061035156 15.303999900817871,22.986000061035156 15.303999900817871,22.986000061035156 C22.040000915527344,22.986000061035156 27.5,17.525999069213867 27.5,10.789999961853027 C27.5,10.789999961853027 27.5,10.789999961853027 27.5,10.789999961853027 C27.5,4.314000129699707 22.450000762939453,-0.9679999947547913 16.075000762939453,-1.3669999837875366z"/><path stroke-linecap="butt" stroke-linejoin="miter" fill-opacity="0" stroke-miterlimit="4" stroke="rgb(255,255,255)" stroke-opacity="1" stroke-width="32" d="M0 0"/></g></g><g transform="matrix(1,0,0,1,275.5,220)" opacity="1" style="display: none;"><g opacity="1" transform="matrix(1,0,0,1,0,0)"><path fill="rgb(255,255,255)" fill-opacity="1" d=" M11.88700008392334,-4.515999794006348 C11.210000038146973,-8.480999946594238 7.758999824523926,-11.5 3.6010000705718994,-11.5 C3.6010000705718994,-11.5 3.6010000705718994,-11.5 3.6010000705718994,-11.5 C-0.5479999780654907,-11.5 -3.992000102996826,-8.494000434875488 -4.679999828338623,-4.541999816894531 C-4.679999828338623,-4.541999816894531 -11.380000114440918,-4.541999816894531 -11.380000114440918,-4.541999816894531 C-15.8100004196167,-4.541999816894531 -19.400999069213867,-0.9509999752044678 -19.400999069213867,3.4790000915527344 C-19.400999069213867,3.4790000915527344 -19.400999069213867,3.4790000915527344 -19.400999069213867,3.4790000915527344 C-19.400999069213867,7.908999919891357 -15.8100004196167,11.5 -11.380000114440918,11.5 C-11.380000114440918,11.5 11.380000114440918,11.5 11.380000114440918,11.5 C15.8100004196167,11.5 19.400999069213867,7.908999919891357 19.400999069213867,3.4790000915527344 C19.400999069213867,3.4790000915527344 19.400999069213867,3.4790000915527344 19.400999069213867,3.4790000915527344 C19.400999069213867,-0.7799999713897705 16.079999923706055,-4.252999782562256 11.88700008392334,-4.515999794006348z"/><path stroke-linecap="butt" stroke-linejoin="miter" fill-opacity="0" stroke-miterlimit="4" stroke="rgb(255,255,255)" stroke-opacity="1" stroke-width="32" d="M0 0"/></g></g><g style="display: block;" transform="matrix(1,0,0,1,184.94607543945312,212.75)" opacity="1"><g opacity="1" transform="matrix(1,0,0,1,0,0)"><path fill="rgb(238,253,255)" fill-opacity="1" d=" M0,-4 C2.2076001167297363,-4 4,-2.2076001167297363 4,0 C4,2.2076001167297363 2.2076001167297363,4 0,4 C-2.2076001167297363,4 -4,2.2076001167297363 -4,0 C-4,-2.2076001167297363 -2.2076001167297363,-4 0,-4z"/><path stroke-linecap="butt" stroke-linejoin="miter" fill-opacity="0" stroke-miterlimit="4" stroke="rgb(255,255,255)" stroke-opacity="1" stroke-width="32" d="M0 0"/></g><g opacity="1" transform="matrix(1,0,0,1,47.5,45)"><path fill="rgb(238,253,255)" fill-opacity="1" d=" M0,-3 C1.6556999683380127,-3 3,-1.6556999683380127 3,0 C3,1.6556999683380127 1.6556999683380127,3 0,3 C-1.6556999683380127,3 -3,1.6556999683380127 -3,0 C-3,-1.6556999683380127 -1.6556999683380127,-3 0,-3z"/><path stroke-linecap="butt" stroke-linejoin="miter" fill-opacity="0" stroke-miterlimit="4" stroke="rgb(255,255,255)" stroke-opacity="1" stroke-width="32" d="M0 0"/></g><g opacity="1" transform="matrix(1,0,0,1,-32.5,65)"><path fill="rgb(238,253,255)" fill-opacity="1" d=" M0,-5 C2.759500026702881,-5 5,-2.759500026702881 5,0 C5,2.759500026702881 2.759500026702881,5 0,5 C-2.759500026702881,5 -5,2.759500026702881 -5,0 C-5,-2.759500026702881 -2.759500026702881,-5 0,-5z"/><path stroke-linecap="butt" stroke-linejoin="miter" fill-opacity="0" stroke-miterlimit="4" stroke="rgb(255,255,255)" stroke-opacity="1" stroke-width="32" d="M0 0"/></g></g><g transform="matrix(0.9997321367263794,-0.02314484491944313,0.02314484491944313,0.9997321367263794,267.1632385253906,191.16061401367188)" opacity="1" style="display: block;"><g opacity="1" transform="matrix(1,0,0,1,60.25,60.25)"><path fill="rgb(238,252,254)" fill-opacity="1" d=" M60,0 C60,33.137001037597656 33.137001037597656,60 0,60 C-33.137001037597656,60 -60,33.137001037597656 -60,0 C-60,-33.137001037597656 -33.137001037597656,-60 0,-60 C33.137001037597656,-60 60,-33.137001037597656 60,0z"/></g><g opacity="1" transform="matrix(1,0,0,1,80.1709976196289,53.448001861572266)"><path fill="rgb(220,244,246)" fill-opacity="1" d=" M-43.15299987792969,29.141000747680664 C-43.15299987792969,35.02799987792969 -47.92599868774414,39.80099868774414 -53.8129997253418,39.80099868774414 C-59.70100021362305,39.80099868774414 -64.4729995727539,35.02799987792969 -64.4729995727539,29.141000747680664 C-64.4729995727539,23.253000259399414 -59.70100021362305,18.481000900268555 -53.8129997253418,18.481000900268555 C-47.92599868774414,18.481000900268555 -43.15299987792969,23.253000259399414 -43.15299987792969,29.141000747680664z M10.449000358581543,7.038000106811523 C16.78700065612793,3.4079999923706055 21.06100082397461,-3.4179999828338623 21.06100082397461,-11.246000289916992 C21.06100082397461,-22.878000259399414 11.631999969482422,-32.30699920654297 0,-32.30699920654297 C-11.631999969482422,-32.30699920654297 -21.06100082397461,-22.878000259399414 -21.06100082397461,-11.246000289916992 C-21.06100082397461,-0.5669999718666077 -13.112000465393066,8.24899959564209 -2.809999942779541,9.623000144958496 C-5.434000015258789,12.008999824523926 -7.0920000076293945,15.439000129699707 -7.0920000076293945,19.266000747680664 C-7.0920000076293945,26.468000411987305 -1.253000020980835,32.30699920654297 5.948999881744385,32.30699920654297 C13.152000427246094,32.30699920654297 18.990999221801758,26.468000411987305 18.990999221801758,19.266000747680664 C18.990999221801758,13.647000312805176 15.430000305175781,8.871999740600586 10.449000358581543,7.038000106811523z"/></g><g opacity="1" transform="matrix(1,0,0,1,86.84500122070312,53.361000061035156)"><path fill="rgb(200,240,246)" fill-opacity="1" d=" M-57.25199890136719,37.67399978637695 C-63.138999938964844,37.67399978637695 -67.91200256347656,32.902000427246094 -67.91200256347656,27.013999938964844 C-67.91200256347656,24.072999954223633 -66.72100067138672,21.40999984741211 -64.79399871826172,19.481000900268555 C-68.53399658203125,21.136999130249023 -71.14700317382812,24.874000549316406 -71.14700317382812,29.22800064086914 C-71.14700317382812,35.1150016784668 -66.375,39.88800048828125 -60.48699951171875,39.88800048828125 C-57.54100036621094,39.88800048828125 -54.874000549316406,38.69300079345703 -52.944000244140625,36.7599983215332 C-54.26300048828125,37.34400177001953 -55.71799850463867,37.67399978637695 -57.25199890136719,37.67399978637695z M3.7750000953674316,7.124000072479248 C10.11299991607666,3.49399995803833 14.387999534606934,-3.3320000171661377 14.387999534606934,-11.15999984741211 C14.387999534606934,-22.79199981689453 4.958000183105469,-32.22100067138672 -6.673999786376953,-32.22100067138672 C-9.39799976348877,-32.22100067138672 -11.998000144958496,-31.697999954223633 -14.387999534606934,-30.756999969482422 C-12.996999740600586,-31.04599952697754 -11.555999755859375,-31.200000762939453 -10.079000473022461,-31.200000762939453 C1.5529999732971191,-31.200000762939453 10.982999801635742,-21.768999099731445 10.982999801635742,-10.13700008392334 C10.982999801635742,-2.309000015258789 6.708000183105469,4.515999794006348 0.3700000047683716,8.145999908447266 C5.35099983215332,9.979999542236328 8.91100025177002,14.755999565124512 8.91100025177002,20.374000549316406 C8.91100025177002,25.636999130249023 5.7870001792907715,30.160999298095703 1.2970000505447388,32.22100067138672 C7.5370001792907715,31.24799919128418 12.317000389099121,25.865999221801758 12.317000389099121,19.35300064086914 C12.317000389099121,13.734000205993652 8.755999565124512,8.958000183105469 3.7750000953674316,7.124000072479248z"/></g></g><g style="display: none;"><g><path stroke-linecap="round" stroke-linejoin="round" fill-opacity="0"/></g></g></g></svg>